<svg clip-rule="evenodd" fill-rule="evenodd" stroke-linejoin="round" stroke-miterlimit="2" viewBox="0 0 1928 722" xmlns="http://www.w3.org/2000/svg"><g transform="translate(-112.924 -138.831)"><g fill="none"><path d="m867.5 459.89c.333 1.453 2.157 6.607 5.47 15.46.307.82.94 2.163 1.9 4.03.461.884 1.377 1.44 2.37 1.44h44.23c.314-.002.589-.211.67-.51.453-1.64.48-3.057.08-4.25-3.42-10.26-5.3-19.113-5.64-26.56-.293-6.493-.44-12.243-.44-17.25.04-106.44.163-201.507.37-285.2.007-1.593-.207-2.573-.64-2.94-2.77-2.35-11.38-.54-15.14.39-11.267 2.787-23.75 6.26-37.45 10.42-1.68.513-2.73 1.137-3.15 1.87-1.48 2.63 2.01 8.93 3.36 11.63.444.895.751 1.852.91 2.84.74 4.593 1.117 7.673 1.13 9.24.247 29.44.32 62.64.22 99.6-.001.032-.006.065-.015.096-.055.178-.243.281-.416.228-.032-.01-.062-.025-.089-.044-9.32-6.21-14.36-10.26-23.13-13.23-16.25-5.48-37.06-5.5-52.28-.3-3.72 1.27-8.67 2.44-12.89 4.64-17.147 8.973-30.293 21.307-39.44 37-8.067 13.847-13.223 28.28-15.47 43.3-1.94 13.013-2.247 26.693-.92 41.04 1.68 18.14 6.43 35.97 16.13 50.84 4.82 7.387 9.953 13.537 15.4 18.45 15.307 13.82 32.623 21.423 51.95 22.81 12.673.907 23.663-.227 32.97-3.4 10.407-3.547 19.25-10.03 26.53-19.45.793-1.027 1.71-1.85 2.75-2.47.07-.042.151-.065.232-.065.208 0 .39.143.438.345"/><path d="m1334.48 201.96c.96 15.58 10.57 26.72 26.1 28.12 11.77 1.067 20.74-2.783 26.92-11.55 4.23-6 6.11-12.733 5.65-20.2-.47-7.473-3.17-13.923-8.1-19.35-7.21-7.94-16.59-10.657-28.14-8.15-15.24 3.32-23.4 15.56-22.43 31.13"/><path d="m1937.74 196.922c-.1-14.8-12.31-26.92-27.11-26.92h-.19l-5.3.037c-14.8.104-26.92 12.309-26.92 27.11v.189l.04 5.68c.1 14.8 12.31 26.92 27.11 26.92h.19l5.3-.037c14.8-.104 26.92-12.309 26.92-27.11v-.189z"/><path d="m371.1 653.98c.02-.2.1-.367.24-.5.12-.1.29-.14.51-.12 2.073.213 3.99.337 5.75.37"/><path d="m377.6 653.73c2.007 11.353 4.82 21.18 8.44 29.48 20.29 46.62 66.55 75.17 117.16 74.54 8.687-.113 13.833-.227 15.44-.34 3.567-.26 8.947-1.223 16.14-2.89 11.393-2.647 21.947-6.73 31.66-12.25 27.86-15.85 48.34-41.63 58.2-72.28 8.88-27.6 7.75-56.44-1.48-83.88-4.63-13.78-11.32-26.59-20.52-37.36-4.067-4.76-6.52-7.53-7.36-8.31-11.893-10.94-23.513-19.057-34.86-24.35-8.353-3.9-17.507-7.393-27.46-10.48-.252-.081-.424-.316-.424-.581 0-.205.103-.396.274-.509.92-.593 2.01-1.067 3.27-1.42 23.72-6.74 44.067-18.987 61.04-36.74 23.6-24.69 34.83-59.3 33.5-93.13-1.43-36.51-17.52-69.71-45.44-93.31-2.98-2.52-6.93-5.01-9.37-6.97-1.56-1.24-4.053-2.84-7.48-4.8-19.74-11.253-40.933-17-63.58-17.24-23.74-.247-45.693 5.13-65.86 16.13-25.31 13.8-44.55 36.47-54.89 63.21-2.48 6.413-4.627 13.783-6.44 22.11"/><path d="m377.56 352.36c-2 .74-4.38.85-7.14.33"/><path d="m370.42 352.69c-.38-4.153-1.1-8.137-2.16-11.95-5.153-18.447-14.19-34.987-27.11-49.62-18.07-20.46-41.86-32.66-68.58-38.05-10.38-2.1-22.94-2.39-33.56-1.99-10.287.393-20.447 2.127-30.48 5.2-27.867 8.547-50.423 24.493-67.67 47.84-14.427 19.527-22.287 41.647-23.58 66.36-.84 15.98.593 30.873 4.3 44.68 1.12 4.2 2.68 8.21 3.82 11.79 4.23 13.32 12.79 26.36 22.02 37.03 2.88 3.34 5.72 5.47 8.28 8.25 1.607 1.74 3.76 3.67 6.46 5.79 15.013 11.767 31.797 20.253 50.35 25.46.867.24 1.733.667 2.6 1.28.045.033.086.072.121.115.243.29.206.726-.08.965-.043.036-.091.066-.141.09-.993.473-3.68 1.277-8.06 2.41-2.647.68-5.24 1.577-7.78 2.69-7.333 3.22-12.117 5.403-14.35 6.55-15.62 7.993-29.227 19.05-40.82 33.17-9.87 12.03-17.1 26.77-21.68 41.72-2.207 7.213-3.697 15.103-4.47 23.67-1.54 17.15-1.01 32.74 3.47 48.65 3.34 11.88 7.75 23.05 14.39 33.57 17.02 26.96 41.287 45.167 72.8 54.62 15.87 4.77 33.1 5.1 49.24 4.41 11.73-.5 21.31-3.08 33.15-6.65 4.41-1.34 8.36-3.43 12.56-5.25 2.867-1.247 5.893-2.797 9.08-4.65 27.99-16.33 47.48-43.26 56.27-74.54 1.04-3.693 1.803-7.8 2.29-12.32"/><path d="m370.42 352.69c-2.733.287-5.467.437-8.2.45-1.513.007-6.32.673-14.42 2-5.667.927-10.417 1.933-14.25 3.02-22.35 6.3-42.13 18.45-58.19 35.43-3.367 3.56-7.57 9.027-12.61 16.4-1.153 1.68-3.66 6.453-7.52 14.32-2.56 5.207-4.543 10.203-5.95 14.99-3.507 11.9-5.493 22.14-5.96 30.72-.693 12.753-.82 31.417-.38 55.99.22 12.067.687 19.87 1.4 23.41 2.42 12.02 5.827 22.96 10.22 32.82 9.59 21.5 26.12 40.64 47.14 52.88 4.933 2.873 8.14 4.637 9.62 5.29 14.227 6.253 27.957 10.283 41.19 12.09 5.06.687 11.133 1.057 18.22 1.11.089 0 .174.045.23.12.047.073.093.157.14.25"/><path d="m377.6 653.73c13.28.173 25.703-1.38 37.27-4.66 12.26-3.48 23.333-8.15 33.22-14.01 13.86-8.213 25.893-19.753 36.1-34.62 2.813-4.107 5.537-9.213 8.17-15.32 4.907-11.4 8.483-22.47 10.73-33.21 1.86-8.9 2.24-17.4 2.4-26.66.207-11.453.157-26.787-.15-46-.173-10.787-1.387-20.59-3.64-29.41-1.8-7.05-3.63-14.29-5.85-19.12-1.82-3.94-4.18-8.73-7.08-14.37-2.96-5.78-5.91-9.3-9.84-15.14-2.67-3.96-6.1-6.66-9.28-10.29-7.05-8.07-15.95-14.42-25.51-20.05-6.533-3.84-13.213-7.053-20.04-9.64-5.107-1.933-11.97-3.687-20.59-5.26-7.62-1.393-14.627-2.517-21.02-3.37-.813-.107-1.683.053-2.61.48-.573.267-1.01.337-1.31.21-.373-.153-.71-.463-1.01-.93"/><path d="m1831.97 425.6c-.47.213-2.25 2.147-5.33 5.8-9.38 11.13-20.56 18.31-35.25 21.18-3.21.627-7.34.99-12.4 1.09-5.98.127-10.15-.08-12.51-.62-8.67-1.973-14.1-3.493-16.29-4.56-17.04-8.28-29.41-23.02-35.12-41.28-2.45-7.827-3.84-14.873-4.19-21.14-1.36-24.73-.51-50.07 12.74-71.69 3.65-5.947 8.15-10.867 13.49-14.76 10.22-7.45 21.56-9.39 34.54-8.59 16.11.99 30.04 8.77 39.83 21.76 1.48 1.96 3.85 5.253 7.1 9.88 2.05 2.9 5.8 4.4 9.02 2.61.95-.527 1.87-1.847 2.76-3.96 4.45-10.553 7.8-21.09 10.07-31.61.56-2.607.79-5.267.69-7.98-.05-1.331-.76-2.554-1.9-3.26-14.13-8.77-30.47-12.86-47.11-15.35-10.09-1.51-23.08-1.57-32.57-1-20.97 1.28-41.27 7.07-58.06 19.15-38.99 28.05-52.24 79.03-42.97 124.42 1.05 5.15 2.57 8.91 4.17 14.14 3.41 11.07 9.66 22.14 17.58 31.04 4.06 4.553 6.99 7.637 8.79 9.25 14.31 12.827 30.88 20.96 49.71 24.4 13.46 2.453 27.75 2.967 42.86 1.54 8.14-.76 17.1-3.17 24.9-6.05 15.64-5.787 28.69-15.31 39.15-28.57 2.07-2.62 5.72-7.82 3.78-10.65-2.82-4.133-7.11-8.833-12.87-14.1-1.49-1.367-2.72-1.863-3.68-1.49-.31.127-.62.26-.93.4"/><path d="m1123.36 480.41c1.35-4.13-1.88-8.67-2.98-12.63-2-7.16-3.08-12.627-3.25-16.4-.35-8.267-.54-13.56-.55-15.88-.07-19.127-.09-51.21-.06-96.25.01-13.86-1.63-27.13-8.92-39.37-9.09-15.307-22.01-25.77-38.74-31.39-11.83-3.967-24.17-5.943-37.04-5.93-9.33.007-16.52.32-21.57.94-16.79 2.05-33.63 6.23-49.66 13.18-3.793 1.647-5.9 2.733-6.32 3.26-1.4 1.76-1.62 4.02-.66 6.78 2.893 8.293 7.347 17.91 13.36 28.85.947 1.713 2.16 3.223 3.64 4.53.25.217.545.371.86.45 2.567.653 4.597-.11 6.09-2.29 5.233-7.667 9.06-12.983 11.48-15.95 5.8-7.11 16.57-10.7 25.44-11 5.95-.2 10.64-.167 14.07.1 13.53 1.03 27.31 7.34 34.74 18.93 6.18 9.64 6.55 19.05 6.09 30.66-.2 5.21-2.43 8.4-7.27 9.65-7.35 1.907-15.06 3.603-23.12 5.09-13.59 2.513-26.37 5.723-38.32 9.63-5.553 1.807-10.877 3.957-15.97 6.45-6.247 3.053-11.15 6.033-14.71 8.94-12.13 9.89-20.32 21.13-23.36 35.83-.947 4.56-1.413 10.227-1.4 17 .02 10.74 2.59 20.12 8.54 28.4 6.68 9.287 15.273 15.86 25.78 19.72 16.56 6.08 34.56 6.07 51.72 2.03 13.99-3.3 25.88-10.193 35.68-20.68.46-.489 1.1-.767 1.77-.767.78 0 1.52.379 1.97 1.017 1.79 2.527 3.61 5.87 5.44 10.03 1.13 2.56 2.75 5.22 4.22 6.99.32.393.8.62 1.31.62h40.96c.34-.001.64-.22.74-.54"/><path d="m1435.78 480.82h48.82c.57-.001 1.07-.347 1.28-.87.47-1.187.71-2.753.72-4.7.16-77.493.22-119.793.19-126.9-.05-11.593.48-19.493 1.58-23.7 3.68-14.107 12.94-23.36 27.78-27.76 5.86-1.74 12.05-1.29 18.36-1.2 2.55.04 6.02.66 10.41 1.86 20.3 5.55 29.75 23.45 31 43.24.27 4.227.41 9.213.43 14.96 0 .68-.01 29.81-.03 87.39 0 11.47-.81 27.36.33 36.34.09.706.69 1.24 1.4 1.24h47.36c.73.001 1.37-.517 1.53-1.24.31-1.453.46-2.59.47-3.41.11-35.74.22-77.847.32-126.32.03-15.45.04-25.46-3.18-37.6-5.39-20.32-19.81-37.49-39.76-44.51-7.93-2.787-16.11-4.383-24.54-4.79-16.82-.807-32.32 1.823-46.51 7.89-10.93 4.68-20.13 12.67-28.85 21.64-.94.973-1.95 1.697-3.04 2.17-.9.394-1.96.101-2.54-.7-.95-1.32-1.56-2.417-1.83-3.29-.85-2.687-2.56-9.123-5.15-19.31-.22-.86-.76-1.713-1.62-2.56-.24-.241-.55-.401-.87-.46-2.93-.54-6.82.11-9.77.86-13.33 3.38-25.51 7.1-36.54 11.16-.71.261-1.23.866-1.39 1.6-.29 1.4-.13 2.743.5 4.03 2.63 5.407 5.12 11.523 7.46 18.35 3.91 11.39 4.13 23.62 4.15 35.02.09 44.26.02 90.867-.21 139.82v.01c0 .955.79 1.74 1.74 1.74z"/><path d="m1387.8 480.77c.87 0 1.59-.718 1.59-1.59.03-87.28.1-145.673.21-175.18.04-9.687.09-20.353.16-32 .01-1.54-.4-3.15-1.23-4.83-.15-.298-.41-.518-.73-.6-1.36-.367-2.87-.47-4.52-.31-1.31.127-5.27 1.103-11.86 2.93-17.93 4.973-31.88 9.037-41.84 12.19-1.78.56-2.51 2.003-2.18 4.33.05.31.16.61.33.88 2.37 3.667 3.94 6.503 4.71 8.51 3.24 8.393 4.87 16.787 4.88 25.18.11 72.547.08 124.38-.07 155.5-.01 1.6.15 2.873.47 3.82.23.696.89 1.169 1.62 1.17z"/><path d="m1870.66 282.57c-2.53.87-1.98 3.28-.85 5.2 1.73 2.92 3.14 5.39 4.25 7.41 2.95 5.407 4.56 11.62 4.81 18.64.4 11.34.59 26.317.56 44.93-.07 50.967-.08 90.597-.03 118.89 0 2.093 1.03 3.133 3.09 3.12 20.25-.113 35.33-.127 45.26-.04 1.27.007 2.37-.077 3.3-.25 1.01-.184 1.75-1.075 1.74-2.1-.1-69.46-.12-138.083-.05-205.87 0-1.78-.34-3.37-1.01-4.77-.28-.598-.87-.994-1.53-1.03-3.24-.16-6.23.11-8.96.81-17.29 4.42-34.15 9.44-50.58 15.06"/><path d="m1127.25 268.96c-.33 1.493-.3 3.083.07 4.77 1.36 6.087 3.77 13.607 7.23 22.56 1.39 3.593 3.27 8.603 5.63 15.03 2.32 6.313 4.24 11.297 5.75 14.95 3.09 7.48 5.67 15.07 9.72 25.44 3.62 9.267 7.01 18.003 10.17 26.21 1.74 4.51 3.48 8 4.95 12.23.7 2.013 1.87 5.1 3.5 9.26 6.31 16.007 12.27 31.743 17.88 47.21 2.61 7.193 6.35 16.723 11.22 28.59.84 2.04 1.82 3.727 2.94 5.06.45.539 1.12.854 1.82.86 8.67.06 18.57.053 29.71-.02 2.97-.02 4.36-1.26 5.21-3.83 4.23-12.79 9.19-24.18 14.73-38.88 6.17-16.347 12.58-32.813 19.23-49.4 3.87-9.64 8.41-22.53 13.15-33.6 2.15-5 4.47-12.44 6.82-18.23 6.13-15.16 11.16-28.84 17.36-43.54 1.63-3.893 3.58-9.12 5.83-15.68.89-2.61 3.07-9.19-1.3-9.37-3.52-.153-10.71-.127-21.56.08-.43.012-.83.21-1.1.54-1.77 2.193-3.11 4.703-4.02 7.53-3.94 12.24-7.95 23.497-12.03 33.77-5.43 13.66-15.61 40.65-22.86 58.31-2.97 7.26-5.13 12.677-6.48 16.25-6.27 16.633-11.29 29.753-15.07 39.36-.25.632-.86 1.05-1.54 1.05-.46 0-.9-.188-1.21-.52-.22-.233-.52-.87-.9-1.91-11.06-30.19-29.76-76.17-44.13-114.53-1.71-4.567-6.57-17.237-14.58-38.01-.45-1.177-1.58-1.959-2.84-1.96h-42.78c-.25-.001-.47.175-.52.42"/><path d="m2019.92 428.78c-14.74-7.315-32.91-1.16-40.25 13.635-7.35 14.796-1.26 32.99 13.47 40.305 14.74 7.315 32.91 1.16 40.25-13.635 7.35-14.796 1.26-32.99-13.47-40.305"/><path d="m374.59 383.3c-2.11 15.46-5.53 30.8-11.34 44.92-2.227 5.427-3.557 8.603-3.99 9.53-3.82 8.133-8.51 15.61-14.07 22.43-11.91 14.62-27.57 26.54-45.28 33.32-7.72 2.96-13.173 4.81-16.36 5.55-13.147 3.04-19.723 4.56-19.73 4.56-.693.173-1.667.243-2.92.21h-.01c-.126 0-.23.104-.23.23v.48c-.001.086.064.16.15.17 4.86.507 9.633 1.397 14.32 2.67 10.107 2.747 19.977 6.203 29.61 10.37 2.233.967 4.133 1.943 5.7 2.93 4.73 2.96 9.71 5.51 13.59 8.48 12.1 9.253 21.567 19.237 28.4 29.95 4.773 7.493 9.2 16.737 13.28 27.73 5.06 13.66 7.977 25.48 8.75 35.46.007.093.073.207.2.34.066.068.157.107.252.107.179 0 .331-.138.348-.317.887-10.233 3.003-20.6 6.35-31.1.96-3.033 3.583-9.41 7.87-19.13 1.97-4.46 4.52-7.77 6.68-11.62 1.56-2.767 3.43-5.55 5.61-8.35 6.487-8.347 14.123-15.783 22.91-22.31 11.49-8.53 25.62-14.76 38.94-19.13 7.64-2.5 17.91-4.49 25.71-6.2.177-.035.305-.192.305-.373 0-.191-.145-.355-.335-.377-17.093-2.18-33.323-7.077-48.69-14.69-7.52-3.73-12.92-7.96-19.11-12.46-2.313-1.68-4.24-3.313-5.78-4.9-.58-.6-2.48-2.507-5.7-5.72-2.727-2.727-5.827-6.45-9.3-11.17-2.987-4.06-5.497-8.02-7.53-11.88-9.967-18.92-16.073-38.82-18.32-59.7v-.005c0-.077-.063-.14-.14-.14-.075 0-.137.06-.14.135"/><path d="m1045.18 557.93c-18.35 2.98-33.28 14.18-33.31 34.33-.04 33.993-.06 63.24-.06 87.74 0 6.693.05 12.527.15 17.5.03 1.993.51 3.71 1.42 5.15 6.77 10.74 18.41 16.67 31.38 18.03 16.9 1.77 32.36-1.32 44.69-13.2 7.75-7.47 13.04-18.73 15.96-29.06 4.9-17.3 4.96-35.32 4.39-52.67-.37-11.24-2.95-25.04-7.91-35.5-2.63-5.553-5.19-9.94-7.67-13.16-8.83-11.473-20.57-17.843-35.24-19.11-6.12-.527-10.72-.543-13.8-.05"/><path d="m1309.88 641.1c0-.057 0-.114-.01-.171-.09-.564-.63-.955-1.2-.867-.05.008-.11.021-.16.038-10.08 3.26-16.85 4.85-26.27 8.1-1.41.48-4.88 1.617-10.39 3.41-6.26 2.033-13.18 5.533-20.76 10.5-12.27 8.06-16.15 20.05-15.52 34.14.64 14.47 10.44 22.32 23.96 24.29 13.7 1.99 27.98-1.05 39.18-9.45 5.93-4.45 9.8-9.38 10.74-17.06.25-2.04.37-3.86.36-5.46-.14-15.98-.12-31.803.07-47.47"/><path d="m1639.64 642.94v.021c.01.23.21.411.45.4.01 0 .01 0 .02-.001 11.37-.96 25.46-4.18 34.97-6.57 4.63-1.167 11.42-3.7 20.37-7.6 6.65-2.893 12.58-7.27 17.79-13.13 6.15-6.9 9.6-15.633 10.33-26.2 1.22-17.48-4.69-32.27-24.14-34.13-5.75-.547-10.73-.45-14.93.29-30.97 5.48-43.76 40.44-44.66 67.74-.21 6.48-.28 12.873-.2 19.18"/></g><path d="m866.83 459.61c-1.04.62-1.957 1.443-2.75 2.47-7.28 9.42-16.123 15.903-26.53 19.45-9.307 3.173-20.297 4.307-32.97 3.4-19.327-1.387-36.643-8.99-51.95-22.81-5.447-4.913-10.58-11.063-15.4-18.45-9.7-14.87-14.45-32.7-16.13-50.84-1.327-14.347-1.02-28.027.92-41.04 2.247-15.02 7.403-29.453 15.47-43.3 9.147-15.693 22.293-28.027 39.44-37 4.22-2.2 9.17-3.37 12.89-4.64 15.22-5.2 36.03-5.18 52.28.3 8.77 2.97 13.81 7.02 23.13 13.23.027.019.057.034.089.044.173.053.361-.05.416-.228.009-.031.014-.064.015-.096.1-36.96.027-70.16-.22-99.6-.013-1.567-.39-4.647-1.13-9.24-.159-.988-.466-1.945-.91-2.84-1.35-2.7-4.84-9-3.36-11.63.42-.733 1.47-1.357 3.15-1.87 13.7-4.16 26.183-7.633 37.45-10.42 3.76-.93 12.37-2.74 15.14-.39.433.367.647 1.347.64 2.94-.207 83.693-.33 178.76-.37 285.2 0 5.007.147 10.757.44 17.25.34 7.447 2.22 16.3 5.64 26.56.4 1.193.373 2.61-.08 4.25-.081.299-.356.508-.67.51h-44.23c-.993 0-1.909-.556-2.37-1.44-.96-1.867-1.593-3.21-1.9-4.03-3.313-8.853-5.137-14.007-5.47-15.46-.048-.202-.23-.345-.438-.345-.081 0-.162.023-.232.065zm-92.76-68.44c.72 12.45 3.88 23.85 9.52 33.97 9.98 17.907 25.353 26.633 46.12 26.18 12.99-.29 28.9-4.67 34.34-17.57.94-2.22 1.433-7.767 1.48-16.64.24-46.493.273-79.84.1-100.04-.053-5.587-1.887-10.167-5.5-13.74-2.747-2.713-5.06-4.53-6.94-5.45-12.44-6.13-28.13-6.36-41.48-2.69-3.433.947-6.887 2.69-10.36 5.23-4.82 3.52-7.83 5.993-9.03 7.42-6.987 8.327-11.94 17.953-14.86 28.88-1.687 6.307-2.74 11.823-3.16 16.55-.98 10.94-1.057 23.573-.23 37.9z" fill="#0e2d38" fill-rule="nonzero"/><path d="m1393.15 198.33c.46 7.467-1.42 14.2-5.65 20.2-6.18 8.767-15.15 12.617-26.92 11.55-15.53-1.4-25.14-12.54-26.1-28.12-.97-15.57 7.19-27.81 22.43-31.13 11.55-2.507 20.93.21 28.14 8.15 4.93 5.427 7.63 11.877 8.1 19.35z" fill="#0e2d38" fill-rule="nonzero"/></g><path d="m29.76-2.84v5.68c0 14.962-12.148 27.11-27.11 27.11h-5.3c-14.962 0-27.11-12.148-27.11-27.11v-5.68c0-14.962 12.148-27.11 27.11-27.11h5.3c14.962 0 27.11 12.148 27.11 27.11z" fill="#0e2d38" transform="matrix(.999976 -.00698126 .00698126 .999976 1795.08 61.1389)"/><g transform="translate(-112.924 -138.831)"><path d="m370.42 352.69c-2.733.287-5.467.437-8.2.45-1.513.007-6.32.673-14.42 2-5.667.927-10.417 1.933-14.25 3.02-22.35 6.3-42.13 18.45-58.19 35.43-3.367 3.56-7.57 9.027-12.61 16.4-1.153 1.68-3.66 6.453-7.52 14.32-2.56 5.207-4.543 10.203-5.95 14.99-3.507 11.9-5.493 22.14-5.96 30.72-.693 12.753-.82 31.417-.38 55.99.22 12.067.687 19.87 1.4 23.41 2.42 12.02 5.827 22.96 10.22 32.82 9.59 21.5 26.12 40.64 47.14 52.88 4.933 2.873 8.14 4.637 9.62 5.29 14.227 6.253 27.957 10.283 41.19 12.09 5.06.687 11.133 1.057 18.22 1.11.089 0 .174.045.23.12.047.073.093.157.14.25-.487 4.52-1.25 8.627-2.29 12.32-8.79 31.28-28.28 58.21-56.27 74.54-3.187 1.853-6.213 3.403-9.08 4.65-4.2 1.82-8.15 3.91-12.56 5.25-11.84 3.57-21.42 6.15-33.15 6.65-16.14.69-33.37.36-49.24-4.41-31.513-9.453-55.78-27.66-72.8-54.62-6.64-10.52-11.05-21.69-14.39-33.57-4.48-15.91-5.01-31.5-3.47-48.65.773-8.567 2.263-16.457 4.47-23.67 4.58-14.95 11.81-29.69 21.68-41.72 11.593-14.12 25.2-25.177 40.82-33.17 2.233-1.147 7.017-3.33 14.35-6.55 2.54-1.113 5.133-2.01 7.78-2.69 4.38-1.133 7.067-1.937 8.06-2.41.05-.024.098-.054.141-.09.286-.239.323-.675.08-.965-.035-.043-.076-.082-.121-.115-.867-.613-1.733-1.04-2.6-1.28-18.553-5.207-35.337-13.693-50.35-25.46-2.7-2.12-4.853-4.05-6.46-5.79-2.56-2.78-5.4-4.91-8.28-8.25-9.23-10.67-17.79-23.71-22.02-37.03-1.14-3.58-2.7-7.59-3.82-11.79-3.707-13.807-5.14-28.7-4.3-44.68 1.293-24.713 9.153-46.833 23.58-66.36 17.247-23.347 39.803-39.293 67.67-47.84 10.033-3.073 20.193-4.807 30.48-5.2 10.62-.4 23.18-.11 33.56 1.99 26.72 5.39 50.51 17.59 68.58 38.05 12.92 14.633 21.957 31.173 27.11 49.62 1.06 3.813 1.78 7.797 2.16 11.95z" fill="#0e2d38" fill-rule="nonzero"/><path d="m377.6 653.73c13.28.173 25.703-1.38 37.27-4.66 12.26-3.48 23.333-8.15 33.22-14.01 13.86-8.213 25.893-19.753 36.1-34.62 2.813-4.107 5.537-9.213 8.17-15.32 4.907-11.4 8.483-22.47 10.73-33.21 1.86-8.9 2.24-17.4 2.4-26.66.207-11.453.157-26.787-.15-46-.173-10.787-1.387-20.59-3.64-29.41-1.8-7.05-3.63-14.29-5.85-19.12-1.82-3.94-4.18-8.73-7.08-14.37-2.96-5.78-5.91-9.3-9.84-15.14-2.67-3.96-6.1-6.66-9.28-10.29-7.05-8.07-15.95-14.42-25.51-20.05-6.533-3.84-13.213-7.053-20.04-9.64-5.107-1.933-11.97-3.687-20.59-5.26-7.62-1.393-14.627-2.517-21.02-3.37-.813-.107-1.683.053-2.61.48-.573.267-1.01.337-1.31.21-.373-.153-.71-.463-1.01-.93 1.813-8.327 3.96-15.697 6.44-22.11 10.34-26.74 29.58-49.41 54.89-63.21 20.167-11 42.12-16.377 65.86-16.13 22.647.24 43.84 5.987 63.58 17.24 3.427 1.96 5.92 3.56 7.48 4.8 2.44 1.96 6.39 4.45 9.37 6.97 27.92 23.6 44.01 56.8 45.44 93.31 1.33 33.83-9.9 68.44-33.5 93.13-16.973 17.753-37.32 30-61.04 36.74-1.26.353-2.35.827-3.27 1.42-.171.113-.274.304-.274.509 0 .265.172.5.424.581 9.953 3.087 19.107 6.58 27.46 10.48 11.347 5.293 22.967 13.41 34.86 24.35.84.78 3.293 3.55 7.36 8.31 9.2 10.77 15.89 23.58 20.52 37.36 9.23 27.44 10.36 56.28 1.48 83.88-9.86 30.65-30.34 56.43-58.2 72.28-9.713 5.52-20.267 9.603-31.66 12.25-7.193 1.667-12.573 2.63-16.14 2.89-1.607.113-6.753.227-15.44.34-50.61.63-96.87-27.92-117.16-74.54-3.62-8.3-6.433-18.127-8.44-29.48z" fill="#0e2d38" fill-rule="nonzero"/><path d="m1832.9 425.2c.96-.373 2.19.123 3.68 1.49 5.76 5.267 10.05 9.967 12.87 14.1 1.94 2.83-1.71 8.03-3.78 10.65-10.46 13.26-23.51 22.783-39.15 28.57-7.8 2.88-16.76 5.29-24.9 6.05-15.11 1.427-29.4.913-42.86-1.54-18.83-3.44-35.4-11.573-49.71-24.4-1.8-1.613-4.73-4.697-8.79-9.25-7.92-8.9-14.17-19.97-17.58-31.04-1.6-5.23-3.12-8.99-4.17-14.14-9.27-45.39 3.98-96.37 42.97-124.42 16.79-12.08 37.09-17.87 58.06-19.15 9.49-.57 22.48-.51 32.57 1 16.64 2.49 32.98 6.58 47.11 15.35 1.14.706 1.85 1.929 1.9 3.26.1 2.713-.13 5.373-.69 7.98-2.27 10.52-5.62 21.057-10.07 31.61-.89 2.113-1.81 3.433-2.76 3.96-3.22 1.79-6.97.29-9.02-2.61-3.25-4.627-5.62-7.92-7.1-9.88-9.79-12.99-23.72-20.77-39.83-21.76-12.98-.8-24.32 1.14-34.54 8.59-5.34 3.893-9.84 8.813-13.49 14.76-13.25 21.62-14.1 46.96-12.74 71.69.35 6.267 1.74 13.313 4.19 21.14 5.71 18.26 18.08 33 35.12 41.28 2.19 1.067 7.62 2.587 16.29 4.56 2.36.54 6.53.747 12.51.62 5.06-.1 9.19-.463 12.4-1.09 14.69-2.87 25.87-10.05 35.25-21.18 3.08-3.653 4.86-5.587 5.33-5.8.31-.14.62-.273.93-.4z" fill="#0e2d38" fill-rule="nonzero"/><path d="m1122.62 480.95h-40.96c-.51 0-.99-.227-1.31-.62-1.47-1.77-3.09-4.43-4.22-6.99-1.83-4.16-3.65-7.503-5.44-10.03-.45-.638-1.19-1.017-1.97-1.017-.67 0-1.31.278-1.77.767-9.8 10.487-21.69 17.38-35.68 20.68-17.16 4.04-35.16 4.05-51.72-2.03-10.507-3.86-19.1-10.433-25.78-19.72-5.95-8.28-8.52-17.66-8.54-28.4-.013-6.773.453-12.44 1.4-17 3.04-14.7 11.23-25.94 23.36-35.83 3.56-2.907 8.463-5.887 14.71-8.94 5.093-2.493 10.417-4.643 15.97-6.45 11.95-3.907 24.73-7.117 38.32-9.63 8.06-1.487 15.77-3.183 23.12-5.09 4.84-1.25 7.07-4.44 7.27-9.65.46-11.61.09-21.02-6.09-30.66-7.43-11.59-21.21-17.9-34.74-18.93-3.43-.267-8.12-.3-14.07-.1-8.87.3-19.64 3.89-25.44 11-2.42 2.967-6.247 8.283-11.48 15.95-1.493 2.18-3.523 2.943-6.09 2.29-.315-.079-.61-.233-.86-.45-1.48-1.307-2.693-2.817-3.64-4.53-6.013-10.94-10.467-20.557-13.36-28.85-.96-2.76-.74-5.02.66-6.78.42-.527 2.527-1.613 6.32-3.26 16.03-6.95 32.87-11.13 49.66-13.18 5.05-.62 12.24-.933 21.57-.94 12.87-.013 25.21 1.963 37.04 5.93 16.73 5.62 29.65 16.083 38.74 31.39 7.29 12.24 8.93 25.51 8.92 39.37-.03 45.04-.01 77.123.06 96.25.01 2.32.2 7.613.55 15.88.17 3.773 1.25 9.24 3.25 16.4 1.1 3.96 4.33 8.5 2.98 12.63-.1.32-.4.539-.74.54zm-54.6-107.08c-1.9.28-3.51.63-4.84 1.05-6.63 2.07-20.56 5.88-32.72 9.99-5.93 2-10.76 4.63-15.58 7.47-5.11 3-9.38 6.97-12.81 11.91-5.65 8.11-6.4 17.94-5.44 27.85 1.23 12.59 10.13 20.85 22.38 23.31 6.57 1.32 13.42.953 20.55-1.1 10.16-2.93 17.83-6.49 24.49-14.81 3.98-4.98 4.43-10.66 4.41-17.04-.07-23.52-.05-39.587.06-48.2v-.006c0-.236-.19-.43-.43-.43-.02 0-.05.002-.07.006z" fill="#0e2d38" fill-rule="nonzero"/><path d="m1484.6 480.82h-48.82c-.95 0-1.74-.785-1.74-1.74v-.01c.23-48.953.3-95.56.21-139.82-.02-11.4-.24-23.63-4.15-35.02-2.34-6.827-4.83-12.943-7.46-18.35-.63-1.287-.79-2.63-.5-4.03.16-.734.68-1.339 1.39-1.6 11.03-4.06 23.21-7.78 36.54-11.16 2.95-.75 6.84-1.4 9.77-.86.32.059.63.219.87.46.86.847 1.4 1.7 1.62 2.56 2.59 10.187 4.3 16.623 5.15 19.31.27.873.88 1.97 1.83 3.29.58.801 1.64 1.094 2.54.7 1.09-.473 2.1-1.197 3.04-2.17 8.72-8.97 17.92-16.96 28.85-21.64 14.19-6.067 29.69-8.697 46.51-7.89 8.43.407 16.61 2.003 24.54 4.79 19.95 7.02 34.37 24.19 39.76 44.51 3.22 12.14 3.21 22.15 3.18 37.6-.1 48.473-.21 90.58-.32 126.32-.01.82-.16 1.957-.47 3.41-.16.723-.8 1.241-1.53 1.24h-47.36c-.71 0-1.31-.534-1.4-1.24-1.14-8.98-.33-24.87-.33-36.34.02-57.58.03-86.71.03-87.39-.02-5.747-.16-10.733-.43-14.96-1.25-19.79-10.7-37.69-31-43.24-4.39-1.2-7.86-1.82-10.41-1.86-6.31-.09-12.5-.54-18.36 1.2-14.84 4.4-24.1 13.653-27.78 27.76-1.1 4.207-1.63 12.107-1.58 23.7.03 7.107-.03 49.407-.19 126.9-.01 1.947-.25 3.513-.72 4.7-.21.523-.71.869-1.28.87z" fill="#0e2d38" fill-rule="nonzero"/><path d="m1387.8 480.77h-48.46c-.73-.001-1.39-.474-1.62-1.17-.32-.947-.48-2.22-.47-3.82.15-31.12.18-82.953.07-155.5-.01-8.393-1.64-16.787-4.88-25.18-.77-2.007-2.34-4.843-4.71-8.51-.17-.27-.28-.57-.33-.88-.33-2.327.4-3.77 2.18-4.33 9.96-3.153 23.91-7.217 41.84-12.19 6.59-1.827 10.55-2.803 11.86-2.93 1.65-.16 3.16-.057 4.52.31.32.082.58.302.73.6.83 1.68 1.24 3.29 1.23 4.83-.07 11.647-.12 22.313-.16 32-.11 29.507-.18 87.9-.21 175.18 0 .872-.72 1.59-1.59 1.59z" fill="#0e2d38" fill-rule="nonzero"/><path d="m1869.81 287.77c-1.13-1.92-1.68-4.33.85-5.2 16.43-5.62 33.29-10.64 50.58-15.06 2.73-.7 5.72-.97 8.96-.81.66.036 1.25.432 1.53 1.03.67 1.4 1.01 2.99 1.01 4.77-.07 67.787-.05 136.41.05 205.87.01 1.025-.73 1.916-1.74 2.1-.93.173-2.03.257-3.3.25-9.93-.087-25.01-.073-45.26.04-2.06.013-3.09-1.027-3.09-3.12-.05-28.293-.04-67.923.03-118.89.03-18.613-.16-33.59-.56-44.93-.25-7.02-1.86-13.233-4.81-18.64-1.11-2.02-2.52-4.49-4.25-7.41z" fill="#0e2d38" fill-rule="nonzero"/><path d="m1127.25 268.96c.05-.245.27-.421.52-.42h42.78c1.26.001 2.39.783 2.84 1.96 8.01 20.773 12.87 33.443 14.58 38.01 14.37 38.36 33.07 84.34 44.13 114.53.38 1.04.68 1.677.9 1.91.31.332.75.52 1.21.52.68 0 1.29-.418 1.54-1.05 3.78-9.607 8.8-22.727 15.07-39.36 1.35-3.573 3.51-8.99 6.48-16.25 7.25-17.66 17.43-44.65 22.86-58.31 4.08-10.273 8.09-21.53 12.03-33.77.91-2.827 2.25-5.337 4.02-7.53.27-.33.67-.528 1.1-.54 10.85-.207 18.04-.233 21.56-.08 4.37.18 2.19 6.76 1.3 9.37-2.25 6.56-4.2 11.787-5.83 15.68-6.2 14.7-11.23 28.38-17.36 43.54-2.35 5.79-4.67 13.23-6.82 18.23-4.74 11.07-9.28 23.96-13.15 33.6-6.65 16.587-13.06 33.053-19.23 49.4-5.54 14.7-10.5 26.09-14.73 38.88-.85 2.57-2.24 3.81-5.21 3.83-11.14.073-21.04.08-29.71.02-.7-.006-1.37-.321-1.82-.86-1.12-1.333-2.1-3.02-2.94-5.06-4.87-11.867-8.61-21.397-11.22-28.59-5.61-15.467-11.57-31.203-17.88-47.21-1.63-4.16-2.8-7.247-3.5-9.26-1.47-4.23-3.21-7.72-4.95-12.23-3.16-8.207-6.55-16.943-10.17-26.21-4.05-10.37-6.63-17.96-9.72-25.44-1.51-3.653-3.43-8.637-5.75-14.95-2.36-6.427-4.24-11.437-5.63-15.03-3.46-8.953-5.87-16.473-7.23-22.56-.37-1.687-.4-3.277-.07-4.77z" fill="#0e2d38" fill-rule="nonzero"/><path d="m377.56 352.36c.3.467.637.777 1.01.93.3.127.737.057 1.31-.21.927-.427 1.797-.587 2.61-.48 6.393.853 13.4 1.977 21.02 3.37 8.62 1.573 15.483 3.327 20.59 5.26 6.827 2.587 13.507 5.8 20.04 9.64 9.56 5.63 18.46 11.98 25.51 20.05 3.18 3.63 6.61 6.33 9.28 10.29 3.93 5.84 6.88 9.36 9.84 15.14 2.9 5.64 5.26 10.43 7.08 14.37 2.22 4.83 4.05 12.07 5.85 19.12 2.253 8.82 3.467 18.623 3.64 29.41.307 19.213.357 34.547.15 46-.16 9.26-.54 17.76-2.4 26.66-2.247 10.74-5.823 21.81-10.73 33.21-2.633 6.107-5.357 11.213-8.17 15.32-10.207 14.867-22.24 26.407-36.1 34.62-9.887 5.86-20.96 10.53-33.22 14.01-11.567 3.28-23.99 4.833-37.27 4.66-1.76-.033-3.677-.157-5.75-.37-.22-.02-.39.02-.51.12-.14.133-.22.3-.24.5-.047-.093-.093-.177-.14-.25-.056-.075-.141-.12-.23-.12-7.087-.053-13.16-.423-18.22-1.11-13.233-1.807-26.963-5.837-41.19-12.09-1.48-.653-4.687-2.417-9.62-5.29-21.02-12.24-37.55-31.38-47.14-52.88-4.393-9.86-7.8-20.8-10.22-32.82-.713-3.54-1.18-11.343-1.4-23.41-.44-24.573-.313-43.237.38-55.99.467-8.58 2.453-18.82 5.96-30.72 1.407-4.787 3.39-9.783 5.95-14.99 3.86-7.867 6.367-12.64 7.52-14.32 5.04-7.373 9.243-12.84 12.61-16.4 16.06-16.98 35.84-29.13 58.19-35.43 3.833-1.087 8.583-2.093 14.25-3.02 8.1-1.327 12.907-1.993 14.42-2 2.733-.013 5.467-.163 8.2-.45 2.76.52 5.14.41 7.14-.33zm-2.97 30.94c-2.11 15.46-5.53 30.8-11.34 44.92-2.227 5.427-3.557 8.603-3.99 9.53-3.82 8.133-8.51 15.61-14.07 22.43-11.91 14.62-27.57 26.54-45.28 33.32-7.72 2.96-13.173 4.81-16.36 5.55-13.147 3.04-19.723 4.56-19.73 4.56-.693.173-1.667.243-2.92.21h-.01c-.126 0-.23.104-.23.23v.48c-.001.086.064.16.15.17 4.86.507 9.633 1.397 14.32 2.67 10.107 2.747 19.977 6.203 29.61 10.37 2.233.967 4.133 1.943 5.7 2.93 4.73 2.96 9.71 5.51 13.59 8.48 12.1 9.253 21.567 19.237 28.4 29.95 4.773 7.493 9.2 16.737 13.28 27.73 5.06 13.66 7.977 25.48 8.75 35.46.007.093.073.207.2.34.066.068.157.107.252.107.179 0 .331-.138.348-.317.887-10.233 3.003-20.6 6.35-31.1.96-3.033 3.583-9.41 7.87-19.13 1.97-4.46 4.52-7.77 6.68-11.62 1.56-2.767 3.43-5.55 5.61-8.35 6.487-8.347 14.123-15.783 22.91-22.31 11.49-8.53 25.62-14.76 38.94-19.13 7.64-2.5 17.91-4.49 25.71-6.2.177-.035.305-.192.305-.373 0-.191-.145-.355-.335-.377-17.093-2.18-33.323-7.077-48.69-14.69-7.52-3.73-12.92-7.96-19.11-12.46-2.313-1.68-4.24-3.313-5.78-4.9-.58-.6-2.48-2.507-5.7-5.72-2.727-2.727-5.827-6.45-9.3-11.17-2.987-4.06-5.497-8.02-7.53-11.88-9.967-18.92-16.073-38.82-18.32-59.7v-.005c0-.077-.063-.14-.14-.14-.075 0-.137.06-.14.135z" fill="#9e6d37" fill-rule="nonzero"/></g><ellipse fill="#9e6d37" rx="30.11" ry="29.99" transform="matrix(.444635 -.895712 .895712 .444635 1893.61 316.919)"/><path d="m900.68 584.45c-2.207.847-4.32.25-6.34-1.79-2-2.02-5.613-5.577-10.84-10.67-10.02-9.76-25.14-14.81-38.74-15.63-4.173-.253-9.583-.183-16.23.21-11.86.7-25.54 7.33-28.95 19.61-2.27 8.18-1.79 16.7 3.14 24 3.887 5.753 9.137 9.943 15.75 12.57 6.72 2.67 15.36 5.24 22.49 7.04 13.14 3.307 23.563 6.14 31.27 8.5 11.63 3.55 24.57 8.01 33.33 15.13 7.86 6.39 13.3 12.79 17.04 22.1 7.19 17.89 3.79 40.25-8.45 55.36-23.02 28.4-57.36 31.24-91.15 29.91-23.8-.94-48.23-8.19-67.78-22.25-3.287-2.36-5.917-4.87-7.89-7.53-1.28-1.74-.55-3.14.78-4.76 3.26-3.967 7.247-8.273 11.96-12.92 1.827-1.807 3.547-3.19 5.16-4.15.957-.577 2.177-.505 3.06.18 6.07 4.71 13.27 10.33 20.14 13.18 10.4 4.31 20.41 7.32 31.89 7.93 6.94.37 17.18.24 25.68-.68 2.713-.293 6.163-1.193 10.35-2.7 15.073-5.427 21.51-16.28 19.31-32.56-1.2-8.86-10.63-15.64-18.66-18.31-17.41-5.8-35.76-8.71-53.52-13.97-9.527-2.82-17.94-6.387-25.24-10.7-14.02-8.28-26.28-23.2-27.75-40.52-.59-7-.73-15.64 1.17-22.85 2.373-9.02 6.423-16.71 12.15-23.07 12.2-13.54 29.98-22.33 48.17-25.47 19.88-3.433 38.477-3.59 55.79-.47 17.4 3.133 33.923 8.377 49.57 15.73 1.793.847 2.233 2.433 1.32 4.76-4.44 11.32-10.42 22.53-15.11 31.86-.013.027-.03.05-.05.07l-1.97 2.27c-.23.263-.522.465-.85.59z" fill="#0e2d38" fill-rule="nonzero" transform="translate(-112.924 -138.831)"/><path d="m1013.56 738.31c-.01-.001-.03-.001-.04-.002-.92-.026-1.7.707-1.73 1.623v117.749c0 1.355-1.11 2.47-2.47 2.47h-48.2c-1.453.001-2.681-1.122-2.81-2.57-.173-1.88-.26-5.733-.26-11.56-.08-151.02-.087-231.277-.02-240.77.13-16.66.3-32.54-6.92-45.63-1.733-3.153-3.43-6.073-5.09-8.76-1.16-1.86-1.69-3.92-1.47-6.02.05-.485.385-.895.85-1.04 16.52-5.06 33.173-9.293 49.96-12.7 1.4-.287 2.94-.393 4.62-.32.91.036 1.69.65 1.95 1.52 1.66 5.667 3.19 11.16 4.58 16.48.19.747.74 1.787 1.64 3.12.2.301.54.482.91.482.24 0 .49-.085.68-.242 4.56-3.713 8.51-6.88 11.85-9.5 8.65-6.78 17.53-10.9 27.98-13.26 15.35-3.467 30.39-3.237 45.1.69 43.9 11.73 68.58 54.88 69.13 98.15.12 9.74.18 18.8-.83 28.03-1.31 11.88-4.63 22.3-9.05 33.93-11.04 29-35.84 51.45-65.85 58.38-9.75 2.247-20.56 2.997-32.43 2.25-13.43-.853-25.97-4.543-37.61-11.07-1.56-.873-3.05-1.35-4.47-1.43zm31.62-180.38c-18.35 2.98-33.28 14.18-33.31 34.33-.04 33.993-.06 63.24-.06 87.74 0 6.693.05 12.527.15 17.5.03 1.993.51 3.71 1.42 5.15 6.77 10.74 18.41 16.67 31.38 18.03 16.9 1.77 32.36-1.32 44.69-13.2 7.75-7.47 13.04-18.73 15.96-29.06 4.9-17.3 4.96-35.32 4.39-52.67-.37-11.24-2.95-25.04-7.91-35.5-2.63-5.553-5.19-9.94-7.67-13.16-8.83-11.473-20.57-17.843-35.24-19.11-6.12-.527-10.72-.543-13.8-.05z" fill="#0e2d38" fill-rule="nonzero" transform="translate(-112.924 -138.831)"/><path d="m1369.02 746.16v.03c0 .411-.34.75-.75.75h-44.84c-.85.001-1.63-.47-2.02-1.22-3.08-5.8-6.09-11.713-9.04-17.74-.75-1.547-1.92-1.657-3.49-.33-4.07 3.44-8.4 6.847-13 10.22-7.5 5.5-15.98 9.193-25.43 11.08-9.55 1.9-19.16 2.43-28.05 2.23-15.18-.32-29.33-3.87-41.11-12.95-1.83-1.413-4.14-3.787-6.91-7.12-6.92-8.34-10.02-17.87-10.6-29.33-.5-9.9.74-18.753 3.71-26.56 2.76-7.267 7.06-13.88 12.9-19.84 5.57-5.673 11.93-10.38 19.09-14.12 5.58-2.92 9.78-4.887 12.6-5.9 5.56-2 15.23-5.73 23.12-7.56 13.49-3.133 26.93-6.05 40.32-8.75 4.88-.98 9.13-2.35 12.75-4.11.95-.458 1.66-1.298 1.96-2.31.42-1.4.64-3.127.65-5.18.03-6.34.35-12.89-.25-16.78-2.51-16.34-12.68-27.41-28.22-31.88-9.96-2.86-20.72-3.23-30.88-2.44-6.99.54-13.05 2.67-18.18 6.39-2.39 1.74-4.87 4.47-7.42 8.19-2.87 4.2-5.72 8.263-8.54 12.19-2.28 3.18-6.01 3.91-8.29.28-2.71-4.327-6.4-11.027-11.09-20.1-3.5-6.77-5.99-11.77-6.35-17.77-.02-.367.1-.73.33-1.02.65-.813 2.03-1.693 4.14-2.64 17.35-7.82 36.33-12.54 54.63-14.3 8.3-.8 18.54-.823 30.73-.07 16.45 1.02 31.93 5.583 46.43 13.69 3.71 2.073 7.25 4.747 10.64 8.02 13.27 12.853 20.3 28.533 21.11 47.04.2 4.593.29 11.677.26 21.25-.12 39.973.02 69.637.41 88.99.23 11.553 2.82 23.41 7.77 35.57.51 1.27.86 2.69.91 4.1zm-59.14-105.06c0-.057 0-.114-.01-.171-.09-.564-.63-.955-1.2-.867-.05.008-.11.021-.16.038-10.08 3.26-16.85 4.85-26.27 8.1-1.41.48-4.88 1.617-10.39 3.41-6.26 2.033-13.18 5.533-20.76 10.5-12.27 8.06-16.15 20.05-15.52 34.14.64 14.47 10.44 22.32 23.96 24.29 13.7 1.99 27.98-1.05 39.18-9.45 5.93-4.45 9.8-9.38 10.74-17.06.25-2.04.37-3.86.36-5.46-.14-15.98-.12-31.803.07-47.47z" fill="#0e2d38" fill-rule="nonzero" transform="translate(-112.924 -138.831)"/><path d="m1558.8 689.31c1.17-1.54 3.16-1.04 4.5-.07 4.61 3.313 8.95 7.537 13.03 12.67.34.43.55.96.6 1.52.25 3.173-.65 6.203-2.71 9.09-7.69 10.747-17.33 19.59-28.92 26.53-2.45 1.467-7.29 3.69-14.52 6.67-6.89 2.84-15.15 4.55-24.78 5.13-15 .9-30.31.17-44.56-3.99-12.26-3.57-22.74-7.61-32.78-15.46-20.93-16.36-33.36-37.913-37.29-64.66-1.54-10.46-1.88-22.68-1.5-33.01.73-19.38 6.09-36.79 15.51-53.58 8.67-15.46 20.95-28.21 35.68-37.33 6-3.72 13.45-7.09 22.35-10.11 7.45-2.527 15.45-4.187 23.99-4.98 21.31-1.97 42.03.22 61.5 7.6 5.45 2.067 9.76 3.933 12.93 5.6 2.31 1.213 3.95 2.397 4.92 3.55 1.83 2.19.25 8.14-.57 12.62-.52 2.853-1.22 5.763-2.1 8.73-2.03 6.793-4.57 14.47-7.64 23.03-.77 2.14-2.47 3.083-5.1 2.83-2.81-.27-7.18-7-9.83-10.93-1.12-1.66-3.37-4.42-6.75-8.28-8.13-9.28-18.32-14.49-30.96-15.56-6.45-.54-12.29-.343-17.52.59-13.18 2.36-25.21 12.4-32.18 23.85-2.6 4.27-6.07 12.39-7.41 18.17-2.6 11.28-4.13 20.08-4.17 31.4-.02 7.447.05 14.387.21 20.82.24 9.85 2.75 19.3 6.01 28.79 3.91 11.373 10.84 20.707 20.77 28 8.76 6.43 19.04 9.99 30.23 10.33 7.11.22 12.95.013 17.52-.62 14.23-1.98 27.7-11.29 36.56-22.45 1.21-1.52 2.87-3.683 4.98-6.49z" fill="#0e2d38" fill-rule="nonzero" transform="translate(-112.924 -138.831)"/><path d="m1643.77 664.93c-.37.026-.66.337-.66.708 0 .041 0 .082.01.122 1.25 7.793 3.58 15.21 6.99 22.25 3.28 6.767 8.18 12.76 14.7 17.98 9.83 7.873 21.31 12.373 34.44 13.5 3.15.273 7.57.31 13.26.11 16.01-.57 30.34-8.52 40.1-21.02 2.2-2.833 4.31-5.84 6.33-9.02.79-1.245 2.36-1.763 3.72-1.23 1.67.64 3.28 1.643 4.85 3.01 1.79 1.567 4.98 4.567 9.56 9 3.65 3.53 2.73 6.77.46 10.66-4.38 7.49-11.96 14.89-18.58 20.21-13.46 10.83-31.65 17.25-48.49 18.96-17.84 1.81-34.48 1.23-51.43-2.95-5.66-1.4-10.98-3.29-15.96-5.67-21.87-10.47-39.78-29.37-47.74-52.35-2.71-7.833-4.44-14.177-5.2-19.03-.65-4.13-1.78-11.8-2.06-17.03-1.16-22.21 1.94-43.82 11.25-63.8 10.04-21.54 26.55-40.22 47.77-51.22 24.61-12.77 55.86-13.7 82.37-5.85 2.97.88 6.87 2.67 11.69 5.37 17.79 9.98 28.19 28.07 28.42 48.37.18 15.813-5.1 29.287-15.84 40.42-10.92 11.33-25.44 19.58-40.29 24.53-22.37 7.46-45.6 12.117-69.67 13.97zm-4.13-21.99v.021c.01.23.21.411.45.4.01 0 .01 0 .02-.001 11.37-.96 25.46-4.18 34.97-6.57 4.63-1.167 11.42-3.7 20.37-7.6 6.65-2.893 12.58-7.27 17.79-13.13 6.15-6.9 9.6-15.633 10.33-26.2 1.22-17.48-4.69-32.27-24.14-34.13-5.75-.547-10.73-.45-14.93.29-30.97 5.48-43.76 40.44-44.66 67.74-.21 6.48-.28 12.873-.2 19.18z" fill="#0e2d38" fill-rule="nonzero" transform="translate(-112.924 -138.831)"/><path d="m374.59 383.3c.003-.075.065-.135.14-.135.077 0 .14.063.14.14v.005c2.247 20.88 8.353 40.78 18.32 59.7 2.033 3.86 4.543 7.82 7.53 11.88 3.473 4.72 6.573 8.443 9.3 11.17 3.22 3.213 5.12 5.12 5.7 5.72 1.54 1.587 3.467 3.22 5.78 4.9 6.19 4.5 11.59 8.73 19.11 12.46 15.367 7.613 31.597 12.51 48.69 14.69.19.022.335.186.335.377 0 .181-.128.338-.305.373-7.8 1.71-18.07 3.7-25.71 6.2-13.32 4.37-27.45 10.6-38.94 19.13-8.787 6.527-16.423 13.963-22.91 22.31-2.18 2.8-4.05 5.583-5.61 8.35-2.16 3.85-4.71 7.16-6.68 11.62-4.287 9.72-6.91 16.097-7.87 19.13-3.347 10.5-5.463 20.867-6.35 31.1-.017.179-.169.317-.348.317-.095 0-.186-.039-.252-.107-.127-.133-.193-.247-.2-.34-.773-9.98-3.69-21.8-8.75-35.46-4.08-10.993-8.507-20.237-13.28-27.73-6.833-10.713-16.3-20.697-28.4-29.95-3.88-2.97-8.86-5.52-13.59-8.48-1.567-.987-3.467-1.963-5.7-2.93-9.633-4.167-19.503-7.623-29.61-10.37-4.687-1.273-9.46-2.163-14.32-2.67-.086-.01-.151-.084-.15-.17v-.48c0-.126.104-.23.23-.23h.01c1.253.033 2.227-.037 2.92-.21.007 0 6.583-1.52 19.73-4.56 3.187-.74 8.64-2.59 16.36-5.55 17.71-6.78 33.37-18.7 45.28-33.32 5.56-6.82 10.25-14.297 14.07-22.43.433-.927 1.763-4.103 3.99-9.53 5.81-14.12 9.23-29.46 11.34-44.92z" fill="#f3e5cb" fill-rule="nonzero" transform="translate(-112.924 -138.831)"/></svg>